<svg id="visual" viewBox="0 0 900 600" width="900" height="600" xmlns="http://www.w3.org/2000/svg" xmlns:xlink="http://www.w3.org/1999/xlink" version="1.1"><path d="M0 13L25 17C50 21 100 29 150 33C200 37 250 37 300 37C350 37 400 37 450 33C500 29 550 21 600 24C650 27 700 41 750 48C800 55 850 55 875 55L900 55L900 0L875 0C850 0 800 0 750 0C700 0 650 0 600 0C550 0 500 0 450 0C400 0 350 0 300 0C250 0 200 0 150 0C100 0 50 0 25 0L0 0Z" fill="#5836ef"></path><path d="M0 109L25 110C50 111 100 113 150 112C200 111 250 107 300 100C350 93 400 83 450 78C500 73 550 73 600 82C650 91 700 109 750 109C800 109 850 91 875 82L900 73L900 53L875 53C850 53 800 53 750 46C700 39 650 25 600 22C550 19 500 27 450 31C400 35 350 35 300 35C250 35 200 35 150 31C100 27 50 19 25 15L0 11Z" fill="#744df2"></path><path d="M0 223L25 234C50 245 100 267 150 272C200 277 250 265 300 247C350 229 400 205 450 206C500 207 550 233 600 230C650 227 700 195 750 196C800 197 850 231 875 248L900 265L900 71L875 80C850 89 800 107 750 107C700 107 650 89 600 80C550 71 500 71 450 76C400 81 350 91 300 98C250 105 200 109 150 110C100 111 50 109 25 108L0 107Z" fill="#8b63f4"></path><path d="M0 253L25 265C50 277 100 301 150 304C200 307 250 289 300 269C350 249 400 227 450 230C500 233 550 261 600 257C650 253 700 217 750 221C800 225 850 269 875 291L900 313L900 263L875 246C850 229 800 195 750 194C700 193 650 225 600 228C550 231 500 205 450 204C400 203 350 227 300 245C250 263 200 275 150 270C100 265 50 243 25 232L0 221Z" fill="#9f79f6"></path><path d="M0 403L25 411C50 419 100 435 150 429C200 423 250 395 300 373C350 351 400 335 450 327C500 319 550 319 600 316C650 313 700 307 750 313C800 319 850 337 875 346L900 355L900 311L875 289C850 267 800 223 750 219C700 215 650 251 600 255C550 259 500 231 450 228C400 225 350 247 300 267C250 287 200 305 150 302C100 299 50 275 25 263L0 251Z" fill="#b18ff8"></path><path d="M0 457L25 458C50 459 100 461 150 459C200 457 250 451 300 438C350 425 400 405 450 388C500 371 550 357 600 351C650 345 700 347 750 354C800 361 850 373 875 379L900 385L900 353L875 344C850 335 800 317 750 311C700 305 650 311 600 314C550 317 500 317 450 325C400 333 350 349 300 371C250 393 200 421 150 427C100 433 50 417 25 409L0 401Z" fill="#c2a5fa"></path><path d="M0 463L25 467C50 471 100 479 150 478C200 477 250 467 300 456C350 445 400 433 450 416C500 399 550 377 600 373C650 369 700 383 750 390C800 397 850 397 875 397L900 397L900 383L875 377C850 371 800 359 750 352C700 345 650 343 600 349C550 355 500 369 450 386C400 403 350 423 300 436C250 449 200 455 150 457C100 459 50 457 25 456L0 455Z" fill="#d3bbfc"></path><path d="M0 511L25 513C50 515 100 519 150 521C200 523 250 523 300 519C350 515 400 507 450 490C500 473 550 447 600 438C650 429 700 437 750 441C800 445 850 445 875 445L900 445L900 395L875 395C850 395 800 395 750 388C700 381 650 367 600 371C550 375 500 397 450 414C400 431 350 443 300 454C250 465 200 475 150 476C100 477 50 469 25 465L0 461Z" fill="#e2d1fd"></path><path d="M0 583L25 584C50 585 100 587 150 586C200 585 250 581 300 573C350 565 400 553 450 547C500 541 550 541 600 542C650 543 700 545 750 553C800 561 850 575 875 582L900 589L900 443L875 443C850 443 800 443 750 439C700 435 650 427 600 436C550 445 500 471 450 488C400 505 350 513 300 517C250 521 200 521 150 519C100 517 50 513 25 511L0 509Z" fill="#f1e8fe"></path><path d="M0 601L25 601C50 601 100 601 150 601C200 601 250 601 300 601C350 601 400 601 450 601C500 601 550 601 600 601C650 601 700 601 750 601C800 601 850 601 875 601L900 601L900 587L875 580C850 573 800 559 750 551C700 543 650 541 600 540C550 539 500 539 450 545C400 551 350 563 300 571C250 579 200 583 150 584C100 585 50 583 25 582L0 581Z" fill="#ffffff"></path></svg>